# xmcd CD database file
#
# Track frame offsets:
#	150
#	21665
#	41127
#	66390
#	87075
#	105497
#	127400
#	147105
#	168697
#	194002
#	217205
#	242870
#	263472
#	284880
#
# Disc length: 4058 seconds
#
# Revision: 6
# Processed by: cddbd v1.5PL3 Copyright (c) Steve Scherf et al.
# Submitted via: CDex 1.50Beta3
#
DISCID=ec0fd80e
DTITLE=岡本真夜 - RISE ?
DYEAR=2001
DGENRE=Other
TTITLE0=TOMORROW
TTITLE1=FOREVER
TTITLE2=Alone
TTITLE3=そのままの君でいて
TTITLE4=泣けちゃうほど せつないほど
TTITLE5=サヨナラ
TTITLE6=大丈夫だよ
TTITLE7=想い出にできなくて
TTITLE8=Everlasting
TTITLE9=宝物
TTITLE10=この星空の彼方
TTITLE11=大スキ!
TTITLE12=Will・・・
TTITLE13=ANNIVERSARY
EXTD=YEAR: 2001
EXTT0=
EXTT1=
EXTT2=
EXTT3=
EXTT4=
EXTT5=
EXTT6=
EXTT7=
EXTT8=
EXTT9=
EXTT10=
EXTT11=
EXTT12=
EXTT13=
PLAYORDER=
